<svg xmlns="http://www.w3.org/2000/svg" aria-hidden="true" style="position:absolute;width:0;height:0;overflow:hidden"><defs><symbol id="icon-belt" viewBox="0 0 32 32"><path d="M30.807 22.235a39.133 39.133 0 0 0-5.759-1.818c-.291-3.544-1.781-6.733-4.087-8.653l4.62-4.536c.112-.11.169-.221.169-.386s-.056-.276-.169-.386l-1.573-1.545a.55.55 0 0 0-.787 0l-4.887 4.815a1.751 1.751 0 0 1-.058-.457v-.938c1.349-.772 2.248-2.207 2.248-3.807l-.002-.055c-.001-.018.002-.037.002-.055C20.524 1.986 18.501 0 16.028 0s-4.496 1.986-4.496 4.414l.002.055c.001.018-.002.037-.002.055 0 1.545.899 3.034 2.248 3.807v.938c0 .607-.393 1.214-1.011 1.49-3.16 1.552-5.37 5.282-5.706 9.581a34.425 34.425 0 0 0-5.87 1.95c-.169.055-.337.221-.337.441s.056.386.225.497l2.248 1.49c.169.11.337.11.506.055a55.36 55.36 0 0 1 3.211-.949c.075 3.105.683 5.889 1.734 7.901a.591.591 0 0 0 .506.276h2.81c.169 0 .45-.11.506-.276s.112-.386 0-.552c-.674-1.269-1.011-3.09-1.068-5.352 2.922-.552 6.125-.552 8.991 0-.056 2.262-.393 4.083-1.068 5.352-.112.165-.112.386 0 .552s.337.276.506.276h2.81c.225 0 .393-.11.45-.276 1.053-2.016 1.662-4.808 1.735-7.92 1.058.276 2.144.599 3.267.969.056.055.112.055.169.055a.31.31 0 0 0 .281-.166l2.248-1.49c.169-.11.225-.276.225-.497 0-.166-.168-.386-.337-.442zm-6.968-2.097a40.885 40.885 0 0 0-6.966-.809 40.425 40.425 0 0 0-3.536.031l6.85-6.725c2.023 1.655 3.372 4.414 3.653 7.503zM14.576 7.399l-.009-.006a3.323 3.323 0 0 1-1.893-2.641l-.001-.007c-.005-.047-.008-.095-.011-.142l-.002-.037c-.002-.051-.004-.101-.004-.153 0-1.821 1.517-3.31 3.372-3.31s3.372 1.49 3.315 3.31a3.28 3.28 0 0 1-1.911 2.979.833.833 0 0 0-.138.086 3.399 3.399 0 0 1-2.719-.08zm-1.301 4.242c1.012-.497 1.63-1.435 1.63-2.483v-.472a4.53 4.53 0 0 0 2.192.013v.459c0 .441.169.938.393 1.324L8.274 19.53c.506-3.586 2.416-6.621 5.001-7.89zm9.159 19.256h-1.63c.562-1.435.843-3.31.843-5.517a.54.54 0 0 0-.45-.552c-3.259-.717-7.024-.717-10.34 0a.54.54 0 0 0-.45.552c0 2.207.281 4.083.843 5.517H9.62c-.899-1.876-1.405-4.414-1.461-7.283.225-.055.393-.11.618-.166 4.889-1.048 9.272-1.048 14.105-.055.337.055.674.165 1.011.221-.056 2.869-.562 5.407-1.461 7.283zm5.901-7.228c-3.984-1.279-7.521-1.987-11.009-2.126-2.903-.13-5.762.133-8.827.802-.337.11-.731.165-1.068.276l-.027.014a55.16 55.16 0 0 0-3.626 1.034l-1.18-.772c1.574-.67 3.345-1.195 5.128-1.576a.195.195 0 0 1 .042.032c.056-.055.112-.055.169-.055a.194.194 0 0 1 .035-.027l.133-.028c.112-.055.225-.11.281-.166l10.227-9.986a.588.588 0 0 0 .125-.178l4.877-4.788.787.772-13.037 12.8c-.169.165-.225.386-.112.607s.337.331.562.331l.022-.002a.388.388 0 0 0 .034.002 40.96 40.96 0 0 1 7.438-.023c1.458.136 2.909.351 4.343.642.232.049.464.1.694.153h.022c1.736.386 3.441.884 5.091 1.49l-1.124.772z"/></symbol><symbol id="icon-gear" viewBox="0 0 32 32"><path d="M13.534 13.228c-2.438 0-4.421 1.983-4.421 4.421s1.983 4.421 4.421 4.421 4.421-1.983 4.421-4.421a4.426 4.426 0 0 0-4.421-4.421zm0 7.58c-1.742 0-3.159-1.417-3.159-3.159s1.417-3.159 3.159-3.159c1.742 0 3.159 1.417 3.159 3.159s-1.417 3.159-3.159 3.159z"/><path d="M13.534 11.245c-3.531 0-6.404 2.873-6.404 6.404s2.873 6.404 6.404 6.404c3.531 0 6.404-2.873 6.404-6.404s-2.873-6.404-6.404-6.404zm0 11.546c-2.835 0-5.141-2.306-5.141-5.142s2.306-5.142 5.142-5.142c2.835 0 5.142 2.306 5.142 5.142s-2.306 5.142-5.142 5.142z"/><path d="M30.761 7.493h-1.407a8.375 8.375 0 0 0-.552-1.333l.995-.995a.63.63 0 0 0 0-.893L27.12 1.595a.633.633 0 0 0-.893 0l-.995.995a8.273 8.273 0 0 0-1.332-.552V.631A.63.63 0 0 0 23.269 0h-3.787a.631.631 0 0 0-.631.631v1.407c-.459.145-.904.33-1.333.552l-.995-.995a.633.633 0 0 0-.893 0l-2.52 2.52h-1.444a.631.631 0 0 0-.631.631v1.679c-.32.071-.638.156-.95.254l-.839-1.453a.632.632 0 0 0-.862-.231L5.149 6.862a.632.632 0 0 0-.231.862l.841 1.456c-.241.221-.473.453-.694.694l-1.456-.841a.631.631 0 0 0-.862.231L.88 12.499a.631.631 0 0 0 .231.862l1.453.839c-.098.312-.183.63-.254.95H.631a.631.631 0 0 0-.631.631v3.735c0 .349.283.631.631.631H2.31c.071.32.156.638.254.95l-1.453.839a.632.632 0 0 0-.231.862l1.867 3.235c.174.302.56.405.862.231l1.456-.841c.221.241.453.473.694.694l-.841 1.456a.631.631 0 0 0 .231.862l3.235 1.867a.631.631 0 0 0 .862-.231l.839-1.453c.312.098.63.183.95.254v1.679c0 .349.283.631.631.631h3.735a.63.63 0 0 0 .631-.631v-1.679c.32-.071.638-.156.95-.254l.839 1.453c.174.302.56.405.862.231l3.235-1.867a.632.632 0 0 0 .231-.862l-.841-1.456c.241-.221.473-.453.694-.694l1.456.841a.631.631 0 0 0 .862-.231l1.868-3.235a.631.631 0 0 0-.231-.862l-1.453-.839c.098-.312.183-.63.254-.95h1.679a.63.63 0 0 0 .631-.631v-1.031a.744.744 0 0 0 .052-.046l2.677-2.678a.633.633 0 0 0 0-.893l-.995-.995c.222-.427.407-.873.552-1.332h1.407a.631.631 0 0 0 .631-.631V8.123a.631.631 0 0 0-.631-.631zm-4.955 11.392H24.24a.632.632 0 0 0-.622.523c-.104.6-.262 1.192-.47 1.76a.632.632 0 0 0 .277.764l1.355.782-1.236 2.141-1.358-.784a.632.632 0 0 0-.8.141c-.389.465-.823.898-1.288 1.288a.632.632 0 0 0-.142.8l.784 1.358-2.142 1.236-.782-1.355a.63.63 0 0 0-.764-.277c-.567.208-1.159.366-1.759.47a.631.631 0 0 0-.523.622v1.566h-2.473v-1.566a.632.632 0 0 0-.523-.622c-.6-.104-1.192-.262-1.759-.47a.632.632 0 0 0-.764.277l-.782 1.355-2.142-1.236.784-1.358a.632.632 0 0 0-.141-.8c-.465-.39-.899-.823-1.288-1.288a.63.63 0 0 0-.8-.141l-1.358.784-1.236-2.141 1.355-.782a.63.63 0 0 0 .277-.764 10.159 10.159 0 0 1-.47-1.759.631.631 0 0 0-.622-.523H1.262v-2.473h1.566a.632.632 0 0 0 .622-.523c.104-.6.262-1.192.47-1.759a.632.632 0 0 0-.277-.764l-1.355-.782 1.236-2.142 1.358.784a.631.631 0 0 0 .8-.142A10.31 10.31 0 0 1 6.97 9.797a.63.63 0 0 0 .141-.8l-.784-1.358 2.141-1.236.782 1.355a.63.63 0 0 0 .764.277 10.145 10.145 0 0 1 1.76-.47.631.631 0 0 0 .523-.622V5.377h2.473v1.566c0 .307.221.569.523.622.6.104 1.192.262 1.759.47a.632.632 0 0 0 .764-.277l.782-1.355 2.142 1.236-.784 1.358a.631.631 0 0 0 .142.8c.465.389.898.823 1.288 1.288a.632.632 0 0 0 .8.142l1.358-.784 1.236 2.142-1.355.782a.63.63 0 0 0-.277.764c.208.567.366 1.159.47 1.759a.631.631 0 0 0 .622.523h1.566v2.473zm4.324-7.606h-1.252a.632.632 0 0 0-.612.477 7.075 7.075 0 0 1-.788 1.902.631.631 0 0 0 .095.771l.886.886-1.39 1.391v-.924a.63.63 0 0 0-.631-.631h-1.679c-.071-.32-.156-.638-.254-.95l1.453-.839a.632.632 0 0 0 .231-.862l-1.868-3.235a.631.631 0 0 0-.862-.231l-1.456.841a11.358 11.358 0 0 0-.694-.694l.841-1.456a.631.631 0 0 0-.231-.862l-3.235-1.868a.631.631 0 0 0-.862.231l-.839 1.453c-.312-.098-.63-.183-.95-.254V4.746a.631.631 0 0 0-.631-.631h-.506l1.181-1.181.886.886a.63.63 0 0 0 .77.096 7.054 7.054 0 0 1 1.903-.789.632.632 0 0 0 .477-.612V1.263h2.524v1.252c0 .289.197.541.477.612a7.054 7.054 0 0 1 1.903.789.63.63 0 0 0 .77-.096l.886-.886 1.785 1.785-.886.886a.63.63 0 0 0-.095.77 7.03 7.03 0 0 1 .788 1.903.631.631 0 0 0 .612.477h1.252v2.525z"/></symbol><symbol id="icon-wheel" viewBox="0 0 32 32"><path d="M16 0C7.2 0 0 7.2 0 16s7.2 16 16 16 16-7.2 16-16S24.8 0 16 0zm0 30.933c-8.213 0-14.933-6.72-14.933-14.933S7.787 1.067 16 1.067c8.213 0 14.933 6.72 14.933 14.933S24.213 30.933 16 30.933z"/><path d="M18.133 19.733c0-1.173-.96-2.133-2.133-2.133s-2.133.96-2.133 2.133.96 2.133 2.133 2.133 2.133-.96 2.133-2.133zM16 20.8c-.587 0-1.067-.48-1.067-1.067s.48-1.067 1.067-1.067 1.067.48 1.067 1.067S16.587 20.8 16 20.8zM17.6 16c0 1.173.96 2.133 2.133 2.133s2.133-.96 2.133-2.133-.96-2.133-2.133-2.133S17.6 14.827 17.6 16zm3.2 0c0 .587-.48 1.067-1.067 1.067s-1.067-.48-1.067-1.067.48-1.067 1.067-1.067S20.8 15.413 20.8 16zM13.867 12.267c0 1.173.96 2.133 2.133 2.133s2.133-.96 2.133-2.133-.96-2.133-2.133-2.133-2.133.96-2.133 2.133zM16 11.2c.587 0 1.067.48 1.067 1.067s-.48 1.067-1.067 1.067-1.067-.48-1.067-1.067S15.413 11.2 16 11.2zM12.267 13.867c-1.173 0-2.133.96-2.133 2.133s.96 2.133 2.133 2.133S14.4 17.173 14.4 16s-.96-2.133-2.133-2.133zm0 3.2c-.587 0-1.067-.48-1.067-1.067s.48-1.067 1.067-1.067 1.067.48 1.067 1.067-.48 1.067-1.067 1.067zM2.667 13.973c1.493.64 3.093.96 4.693.96h1.333c.267 0 .48-.16.48-.373a7.024 7.024 0 0 1 5.28-5.28.52.52 0 0 0 .427-.533V7.414c0-1.653-.32-3.2-.96-4.693-.107-.213-.32-.373-.587-.32C7.84 3.468 3.413 7.894 2.346 13.388c-.053.267.107.48.32.587zM13.173 3.52c.427 1.227.693 2.507.693 3.84v.907a8.016 8.016 0 0 0-5.6 5.6h-.907c-1.333 0-2.613-.213-3.84-.693 1.067-4.747 4.907-8.587 9.653-9.653zM17.493 9.227a7.024 7.024 0 0 1 5.28 5.28.52.52 0 0 0 .533.427h1.333c1.6 0 3.2-.32 4.64-1.013.213-.107.373-.32.32-.587-1.067-5.493-5.493-9.92-10.987-10.987-.267-.053-.48.107-.587.32a11.916 11.916 0 0 0-.96 4.693v1.333c0 .267.16.48.427.533zm.694-1.814c0-1.333.213-2.613.693-3.84 4.747 1.067 8.533 4.853 9.6 9.6-1.227.427-2.507.693-3.84.693h-.907c-.747-2.72-2.88-4.853-5.547-5.547v-.907zM14.56 22.773a7.024 7.024 0 0 1-5.28-5.28.52.52 0 0 0-.533-.427H7.414c-1.653 0-3.2.32-4.693.96-.213.107-.373.32-.32.587 1.067 5.493 5.493 9.92 10.987 10.987h.107c.213 0 .373-.107.533-.267.64-1.493.96-3.093.96-4.693v-1.333c0-.267-.16-.48-.427-.533zm-.747 1.814c0 1.333-.213 2.613-.693 3.84-4.747-1.067-8.533-4.853-9.6-9.6a13.272 13.272 0 0 1 3.787-.747h.907a8.016 8.016 0 0 0 5.6 5.6v.907zM29.333 17.973a11.916 11.916 0 0 0-4.693-.96h-1.333c-.267 0-.48.16-.533.427a7.024 7.024 0 0 1-5.28 5.28.52.52 0 0 0-.427.533v1.333c0 1.653.32 3.2.96 4.693.053.213.267.32.48.32.053 0 .107 0 .16-.053 5.493-1.067 9.92-5.493 10.987-10.987.053-.267-.107-.48-.32-.587zM18.827 28.48c-.427-1.227-.693-2.507-.693-3.84v-.907c2.72-.747 4.853-2.88 5.547-5.547h.907c1.333 0 2.613.213 3.84.693-1.067 4.747-4.853 8.533-9.6 9.6z"/></symbol></defs></svg>